<?xml version="1.0" encoding="utf-8"?>
<!-- Generator: Adobe Illustrator 24.0.1, SVG Export Plug-In . SVG Version: 6.00 Build 0)  -->
<svg version="1.1" id="Camada_1" xmlns="http://www.w3.org/2000/svg" xmlns:xlink="http://www.w3.org/1999/xlink" x="0px" y="0px"
	 viewBox="0 0 430 600" style="enable-background:new 0 0 430 600;" xml:space="preserve">
<style type="text/css">
	.st0{display:none;}
	.st1{display:inline;fill:#020202;stroke:#000000;stroke-miterlimit:10;}
	.st2{fill:#FFFFFF;}
</style>
<g id="Camada_2_1_" class="st0">
	<rect x="1.5" y="0.2" class="st1" width="428.5" height="599.8"/>
</g>
<g id="versao_final">
	<path class="st2" d="M209,594c1.7,2.6,4.5,6.3,7.8,6c2.8-0.2,4.8-3.1,6.3-5.7c35.9-60.9,71.9-121.8,107.8-182.7
		c-25.1-34.4-50.3-68.8-75.6-103.2c-53.4,17.1-111.9-7.8-134.8-56.7c-24-51.3-0.5-111.1,47.6-136c59.1-30.7,134.8,2.4,155.7,57.5
		c13.6,35.7,3.1,77.8-25.6,109.5c20.1,27.4,40,54.9,60.1,82.3c1.3-2.3,2.7-4.5,4-6.9c72.6-66.5,88.8-172.5,39.4-255
		C349,15.2,237.1-20.4,143,11.5C64.5,38.3,8.3,108.6,0.8,188.2c-8.5,91.1,50.8,153.7,60.6,163.7C143.1,486.5,203.2,585.1,209,594z"
		/>
	<path class="st2" d="M309.7,200c-4.5-44.2-44.6-78.2-90.4-77.2c-48.8,1-88.7,41.4-86.9,88.4c1.8,49.2,48.2,87.5,98.7,82.2
		C278.5,288.5,314.4,246.4,309.7,200z M236.8,246c-18.3,7.8-39.5,1.7-51.2-12.7c-10.7-13.3-12.9-32.6-2.8-47.5
		c10.9-16.3,33.4-22.9,53.2-15.1c-8.9,6.5-10.4,18.5-4.2,26.1c6.6,8.1,20.4,9.2,28.9,1C265.9,217.5,255.5,238,236.8,246z"/>
</g>
</svg>
