<?xml version="1.0" encoding="UTF-8"?>
<!DOCTYPE svg PUBLIC "-//W3C//DTD SVG 1.1//EN" "http://www.w3.org/Graphics/SVG/1.1/DTD/svg11.dtd">
<!-- Creator: CorelDRAW X7 -->
<svg xmlns="http://www.w3.org/2000/svg" xml:space="preserve" width="210mm" height="297mm" version="1.1" style="shape-rendering:geometricPrecision; text-rendering:geometricPrecision; image-rendering:optimizeQuality; fill-rule:evenodd; clip-rule:evenodd"
viewBox="0 0 21000 29700"
 xmlns:xlink="http://www.w3.org/1999/xlink">
 <defs>
  <style type="text/css">
   <![CDATA[
    .str0 {stroke:#FEFEFE;stroke-width:20}
    .fil241 {fill:none}
    .fil240 {fill:#81358B}
    .fil239 {fill:#82368C}
    .fil238 {fill:#82378C}
    .fil237 {fill:#83388D}
    .fil236 {fill:#83398D}
    .fil235 {fill:#843A8E}
    .fil234 {fill:#853B8E}
    .fil233 {fill:#853C8F}
    .fil232 {fill:#863D8F}
    .fil231 {fill:#863D90}
    .fil230 {fill:#873E90}
    .fil229 {fill:#873F91}
    .fil228 {fill:#884091}
    .fil227 {fill:#894192}
    .fil226 {fill:#894293}
    .fil225 {fill:#8A4393}
    .fil224 {fill:#8A4494}
    .fil223 {fill:#8B4594}
    .fil222 {fill:#8C4695}
    .fil221 {fill:#8C4795}
    .fil220 {fill:#8D4896}
    .fil219 {fill:#8D4996}
    .fil218 {fill:#8E4A97}
    .fil217 {fill:#8F4B97}
    .fil216 {fill:#8F4C98}
    .fil215 {fill:#904D99}
    .fil214 {fill:#904E99}
    .fil213 {fill:#914E9A}
    .fil212 {fill:#914F9A}
    .fil211 {fill:#92509B}
    .fil210 {fill:#93519B}
    .fil209 {fill:#93529C}
    .fil208 {fill:#94539C}
    .fil207 {fill:#94549D}
    .fil206 {fill:#95559D}
    .fil205 {fill:#96569E}
    .fil204 {fill:#96579E}
    .fil203 {fill:#97589F}
    .fil202 {fill:#9759A0}
    .fil201 {fill:#985AA0}
    .fil200 {fill:#995BA1}
    .fil199 {fill:#995CA1}
    .fil198 {fill:#9A5DA2}
    .fil197 {fill:#9A5EA2}
    .fil196 {fill:#9B5EA3}
    .fil195 {fill:#9B5FA3}
    .fil194 {fill:#9C60A4}
    .fil193 {fill:#9D61A4}
    .fil192 {fill:#9D62A5}
    .fil191 {fill:#9E63A6}
    .fil190 {fill:#9E64A6}
    .fil189 {fill:#9F65A7}
    .fil188 {fill:#A066A7}
    .fil187 {fill:#A067A8}
    .fil186 {fill:#A168A8}
    .fil185 {fill:#A169A9}
    .fil184 {fill:#A26AA9}
    .fil183 {fill:#A36BAA}
    .fil182 {fill:#A36CAA}
    .fil181 {fill:#A46DAB}
    .fil180 {fill:#A46EAB}
    .fil179 {fill:#A56FAC}
    .fil178 {fill:#A56FAD}
    .fil177 {fill:#A670AD}
    .fil176 {fill:#A771AE}
    .fil175 {fill:#A772AE}
    .fil174 {fill:#A873AF}
    .fil173 {fill:#A874AF}
    .fil172 {fill:#A975B0}
    .fil171 {fill:#AA76B0}
    .fil170 {fill:#AA77B1}
    .fil169 {fill:#AB78B1}
    .fil168 {fill:#AB79B2}
    .fil167 {fill:#AC7AB3}
    .fil166 {fill:#AD7BB3}
    .fil165 {fill:#AD7CB4}
    .fil164 {fill:#AE7DB4}
    .fil163 {fill:#AE7EB5}
    .fil162 {fill:#AF7FB5}
    .fil161 {fill:#AF80B6}
    .fil160 {fill:#B080B6}
    .fil159 {fill:#B181B7}
    .fil158 {fill:#B182B7}
    .fil157 {fill:#B283B8}
    .fil156 {fill:#B284B8}
    .fil155 {fill:#B385B9}
    .fil154 {fill:#B486BA}
    .fil153 {fill:#B487BA}
    .fil152 {fill:#B588BB}
    .fil151 {fill:#B589BB}
    .fil150 {fill:#B68ABC}
    .fil149 {fill:#B78BBC}
    .fil148 {fill:#B78CBD}
    .fil147 {fill:#B88DBD}
    .fil146 {fill:#B88EBE}
    .fil145 {fill:#B98FBE}
    .fil144 {fill:#B990BF}
    .fil143 {fill:#BA90C0}
    .fil142 {fill:#BB91C0}
    .fil141 {fill:#BB92C1}
    .fil140 {fill:#BC93C1}
    .fil139 {fill:#BC94C2}
    .fil138 {fill:#BD95C2}
    .fil137 {fill:#BE96C3}
    .fil136 {fill:#BE97C3}
    .fil135 {fill:#BF98C4}
    .fil134 {fill:#BF99C4}
    .fil133 {fill:#C09AC5}
    .fil132 {fill:#C09BC5}
    .fil131 {fill:#C19BC6}
    .fil130 {fill:#C19CC6}
    .fil129 {fill:#C29DC7}
    .fil128 {fill:#C39EC7}
    .fil127 {fill:#C39FC8}
    .fil126 {fill:#C4A0C8}
    .fil125 {fill:#C4A1C9}
    .fil124 {fill:#C5A1C9}
    .fil123 {fill:#C5A2CA}
    .fil122 {fill:#C5A3CA}
    .fil121 {fill:#C6A3CA}
    .fil120 {fill:#C6A4CB}
    .fil119 {fill:#C7A5CB}
    .fil118 {fill:#C7A6CC}
    .fil117 {fill:#C8A6CC}
    .fil116 {fill:#C8A7CC}
    .fil115 {fill:#C8A8CD}
    .fil114 {fill:#C9A8CD}
    .fil113 {fill:#C9A9CE}
    .fil112 {fill:#CAAACE}
    .fil111 {fill:#CBABCF}
    .fil110 {fill:#CBACCF}
    .fil109 {fill:#CBACD0}
    .fil108 {fill:#CCADD0}
    .fil107 {fill:#CCAED0}
    .fil106 {fill:#CDAED1}
    .fil105 {fill:#CDAFD1}
    .fil104 {fill:#CEB0D2}
    .fil103 {fill:#CEB1D2}
    .fil102 {fill:#CFB2D3}
    .fil101 {fill:#CFB3D3}
    .fil100 {fill:#D0B3D3}
    .fil99 {fill:#D0B4D4}
    .fil98 {fill:#D1B5D4}
    .fil97 {fill:#D1B5D5}
    .fil96 {fill:#D1B6D5}
    .fil95 {fill:#D2B7D5}
    .fil94 {fill:#D2B7D6}
    .fil93 {fill:#D3B8D6}
    .fil92 {fill:#D3B9D7}
    .fil91 {fill:#D4B9D7}
    .fil90 {fill:#D4BAD7}
    .fil89 {fill:#D4BBD8}
    .fil88 {fill:#D5BBD8}
    .fil87 {fill:#D5BCD9}
    .fil86 {fill:#D6BDD9}
    .fil85 {fill:#D7BEDA}
    .fil84 {fill:#D7BFDA}
    .fil83 {fill:#D7BFDB}
    .fil82 {fill:#D8C0DB}
    .fil81 {fill:#D8C1DB}
    .fil80 {fill:#D9C2DC}
    .fil79 {fill:#DAC3DC}
    .fil78 {fill:#DAC4DD}
    .fil77 {fill:#DBC5DE}
    .fil76 {fill:#DBC6DE}
    .fil75 {fill:#DCC6DE}
    .fil74 {fill:#DCC7DF}
    .fil73 {fill:#DCC8DF}
    .fil72 {fill:#DDC8E0}
    .fil71 {fill:#DDC9E0}
    .fil70 {fill:#DECAE0}
    .fil69 {fill:#DECAE1}
    .fil68 {fill:#DFCBE1}
    .fil67 {fill:#DFCCE2}
    .fil66 {fill:#E0CDE2}
    .fil65 {fill:#E0CEE3}
    .fil64 {fill:#E1CFE3}
    .fil63 {fill:#E1CFE4}
    .fil62 {fill:#E2D0E4}
    .fil61 {fill:#E2D1E4}
    .fil60 {fill:#E2D1E5}
    .fil59 {fill:#E3D2E5}
    .fil58 {fill:#E3D3E6}
    .fil57 {fill:#E4D3E6}
    .fil56 {fill:#E4D4E6}
    .fil55 {fill:#E5D5E7}
    .fil54 {fill:#E5D6E7}
    .fil53 {fill:#E6D7E8}
    .fil52 {fill:#E7D8E9}
    .fil51 {fill:#E7D9E9}
    .fil50 {fill:#E8D9E9}
    .fil49 {fill:#E8DAEA}
    .fil48 {fill:#E8DBEA}
    .fil47 {fill:#E9DBEB}
    .fil46 {fill:#E9DCEB}
    .fil45 {fill:#EADDEB}
    .fil44 {fill:#EADEEC}
    .fil43 {fill:#EBDEEC}
    .fil42 {fill:#EBDFED}
    .fil41 {fill:#EBE0ED}
    .fil40 {fill:#ECE0ED}
    .fil39 {fill:#ECE1EE}
    .fil38 {fill:#EDE2EE}
    .fil37 {fill:#EDE2EF}
    .fil36 {fill:#EEE3EF}
    .fil35 {fill:#EEE4EF}
    .fil34 {fill:#EEE4F0}
    .fil33 {fill:#EFE5F0}
    .fil32 {fill:#EFE6F0}
    .fil31 {fill:#F0E6F1}
    .fil30 {fill:#F0E7F1}
    .fil29 {fill:#F1E8F2}
    .fil28 {fill:#F1E9F2}
    .fil27 {fill:#F2EAF3}
    .fil26 {fill:#F2EBF3}
    .fil25 {fill:#F3EBF4}
    .fil24 {fill:#F3ECF4}
    .fil23 {fill:#F3EDF4}
    .fil22 {fill:#F4EDF5}
    .fil21 {fill:#F4EEF5}
    .fil20 {fill:#F5EFF6}
    .fil19 {fill:#F6F0F6}
    .fil18 {fill:#F6F1F7}
    .fil17 {fill:#F7F2F8}
    .fil16 {fill:#F7F3F8}
    .fil15 {fill:#F8F3F8}
    .fil14 {fill:#F8F4F9}
    .fil13 {fill:#F9F5F9}
    .fil12 {fill:#F9F5FA}
    .fil11 {fill:#F9F6FA}
    .fil10 {fill:#FAF7FA}
    .fil9 {fill:#FAF7FB}
    .fil8 {fill:#FBF8FB}
    .fil7 {fill:#FBF9FB}
    .fil6 {fill:#FCFAFC}
    .fil5 {fill:#FCFBFD}
    .fil4 {fill:#FDFCFD}
    .fil3 {fill:#FEFDFE}
    .fil2 {fill:#FEFEFE}
    .fil1 {fill:#FFFEFF}
    .fil0 {fill:white}
   ]]>
  </style>
     <clipPath id="id0">
      <path d="M19539 10921c0,-4949 -4012,-8961 -8961,-8961 -4949,0 -8961,4012 -8961,8961 0,4949 4012,8961 8961,8961 4949,0 8961,-4012 8961,-8961z"/>
     </clipPath>
 </defs>
 <g id="Camada_x0020_1">
  <metadata id="CorelCorpID_0Corel-Layer"/>
  <g id="_2544999953136">
   <g>
    <g style="clip-path:url(#id0)">
     <polygon class="fil0" points="10525,10868 10630,10868 10630,10973 10525,10973 "/>
     <path id="1" class="fil1" d="M10543 10886l0 70 70 0 0 -70 -70 0zm-53 -53l175 0 0 175 -175 0 0 -175z"/>
     <path id="2" class="fil2" d="M10508 10851l0 140 140 0 0 -140 -140 0zm-53 -53l245 0 0 245 -245 0 0 -245z"/>
     <path id="3" class="fil3" d="M10473 10816l0 210 210 0 0 -210 -210 0zm-53 -53l315 0 0 315 -315 0 0 -315z"/>
     <path id="4" class="fil4" d="M10438 10781l0 280 280 0 0 -280 -280 0zm-53 -53l385 0 0 385 -385 0 0 -385z"/>
     <path id="5" class="fil4" d="M10403 10746l0 350 350 0 0 -350 -350 0zm-53 -53l455 0 0 455 -455 0 0 -455z"/>
     <path id="6" class="fil5" d="M10368 10711l0 420 420 0 0 -420 -420 0zm-53 -53l525 0 0 525 -525 0 0 -525z"/>
     <path id="7" class="fil6" d="M10333 10676l0 490 490 0 0 -490 -490 0zm-53 -53l595 0 0 595 -595 0 0 -595z"/>
     <path id="8" class="fil6" d="M10298 10641l0 560 560 0 0 -560 -560 0zm-53 -53l665 0 0 665 -665 0 0 -665z"/>
     <path id="9" class="fil7" d="M10263 10606l0 630 630 0 0 -630 -630 0zm-53 -53l735 0 0 735 -735 0 0 -735z"/>
     <path id="10" class="fil8" d="M10228 10571l0 700 700 0 0 -700 -700 0zm-53 -53l805 0 0 805 -805 0 0 -805z"/>
     <path id="11" class="fil9" d="M10193 10536l0 770 770 0 0 -770 -770 0zm-53 -53l875 0 0 875 -875 0 0 -875z"/>
     <path id="12" class="fil10" d="M10158 10501l0 840 840 0 0 -840 -840 0zm-53 -53l945 0 0 945 -945 0 0 -945z"/>
     <path id="13" class="fil11" d="M10123 10466l0 910 910 0 0 -910 -910 0zm-53 -53l1015 0 0 1015 -1015 0 0 -1015z"/>
     <path id="14" class="fil12" d="M10088 10431l0 980 980 0 0 -980 -980 0zm-53 -53l1085 0 0 1085 -1085 0 0 -1085z"/>
     <path id="15" class="fil13" d="M10053 10396l0 1050 1050 0 0 -1050 -1050 0zm-53 -53l1155 0 0 1155 -1155 0 0 -1155z"/>
     <path id="16" class="fil14" d="M10018 10361l0 1120 1120 0 0 -1120 -1120 0zm-53 -53l1225 0 0 1225 -1225 0 0 -1225z"/>
     <path id="17" class="fil15" d="M9983 10326l0 1190 1190 0 0 -1190 -1190 0zm-53 -53l1295 0 0 1295 -1295 0 0 -1295z"/>
     <path id="18" class="fil16" d="M9948 10291l0 1260 1260 0 0 -1260 -1260 0zm-53 -53l1365 0 0 1365 -1365 0 0 -1365z"/>
     <path id="19" class="fil17" d="M9913 10256l0 1330 1330 0 0 -1330 -1330 0zm-53 -53l1435 0 0 1435 -1435 0 0 -1435z"/>
     <path id="20" class="fil18" d="M9878 10221l0 1400 1400 0 0 -1400 -1400 0zm-53 -53l1505 0 0 1505 -1505 0 0 -1505z"/>
     <path id="21" class="fil18" d="M9843 10186l0 1470 1470 0 0 -1470 -1470 0zm-53 -53l1575 0 0 1575 -1575 0 0 -1575z"/>
     <path id="22" class="fil19" d="M9808 10151l0 1540 1540 0 0 -1540 -1540 0zm-53 -53l1645 0 0 1645 -1645 0 0 -1645z"/>
     <path id="23" class="fil20" d="M9773 10116l0 1610 1610 0 0 -1610 -1610 0zm-53 -53l1715 0 0 1715 -1715 0 0 -1715z"/>
     <path id="24" class="fil20" d="M9738 10081l0 1680 1680 0 0 -1680 -1680 0zm-53 -53l1785 0 0 1785 -1785 0 0 -1785z"/>
     <path id="25" class="fil21" d="M9703 10046l0 1750 1750 0 0 -1750 -1750 0zm-53 -53l1855 0 0 1855 -1855 0 0 -1855z"/>
     <path id="26" class="fil22" d="M9668 10011l0 1820 1820 0 0 -1820 -1820 0zm-53 -53l1925 0 0 1925 -1925 0 0 -1925z"/>
     <path id="27" class="fil23" d="M9633 9976l0 1890 1890 0 0 -1890 -1890 0zm-53 -53l1995 0 0 1995 -1995 0 0 -1995z"/>
     <path id="28" class="fil24" d="M9598 9941l0 1960 1960 0 0 -1960 -1960 0zm-53 -53l2065 0 0 2065 -2065 0 0 -2065z"/>
     <path id="29" class="fil25" d="M9563 9906l0 2030 2030 0 0 -2030 -2030 0zm-53 -53l2135 0 0 2135 -2135 0 0 -2135z"/>
     <path id="30" class="fil26" d="M9528 9871l0 2100 2100 0 0 -2100 -2100 0zm-53 -53l2205 0 0 2205 -2205 0 0 -2205z"/>
     <path id="31" class="fil27" d="M9493 9836l0 2170 2170 0 0 -2170 -2170 0zm-53 -53l2275 0 0 2276 -2275 0 0 -2276z"/>
     <path id="32" class="fil28" d="M9458 9801l0 2240 2240 0 0 -2240 -2240 0zm-53 -53l2345 0 0 2346 -2345 0 0 -2346z"/>
     <path id="33" class="fil29" d="M9423 9766l0 2310 2310 0 0 -2310 -2310 0zm-53 -53l2415 0 0 2416 -2415 0 0 -2416z"/>
     <path id="34" class="fil29" d="M9388 9731l0 2380 2380 0 0 -2380 -2380 0zm-53 -53l2485 0 0 2486 -2485 0 0 -2486z"/>
     <path id="35" class="fil30" d="M9353 9696l0 2450 2450 0 0 -2450 -2450 0zm-53 -53l2555 0 0 2556 -2555 0 0 -2556z"/>
     <path id="36" class="fil31" d="M9318 9661l0 2520 2520 0 0 -2520 -2520 0zm-53 -53l2625 0 0 2626 -2625 0 0 -2626z"/>
     <path id="37" class="fil32" d="M9283 9626l0 2590 2590 0 0 -2590 -2590 0zm-53 -53l2695 0 0 2696 -2695 0 0 -2696z"/>
     <path id="38" class="fil33" d="M9248 9591l0 2660 2660 0 0 -2660 -2660 0zm-53 -53l2765 0 0 2766 -2765 0 0 -2766z"/>
     <path id="39" class="fil34" d="M9213 9556l0 2730 2730 0 0 -2730 -2730 0zm-53 -53l2835 0 0 2836 -2835 0 0 -2836z"/>
     <path id="40" class="fil35" d="M9178 9521l0 2800 2800 0 0 -2800 -2800 0zm-53 -53l2905 0 0 2906 -2905 0 0 -2906z"/>
     <path id="41" class="fil36" d="M9143 9486l0 2870 2870 0 0 -2870 -2870 0zm-53 -53l2975 0 0 2976 -2975 0 0 -2976z"/>
     <path id="42" class="fil37" d="M9108 9451l0 2940 2940 0 0 -2940 -2940 0zm-53 -53l3045 0 0 3046 -3045 0 0 -3046z"/>
     <path id="43" class="fil38" d="M9073 9416l0 3010 3010 0 0 -3010 -3010 0zm-53 -53l3115 0 0 3116 -3115 0 0 -3116z"/>
     <path id="44" class="fil39" d="M9038 9381l0 3080 3080 0 0 -3080 -3080 0zm-53 -53l3185 0 0 3186 -3185 0 0 -3186z"/>
     <path id="45" class="fil40" d="M9003 9346l0 3150 3150 0 0 -3150 -3150 0zm-53 -53l3255 0 0 3256 -3255 0 0 -3256z"/>
     <path id="46" class="fil41" d="M8968 9311l0 3220 3220 0 0 -3220 -3220 0zm-53 -53l3325 0 0 3326 -3325 0 0 -3326z"/>
     <path id="47" class="fil42" d="M8933 9276l0 3290 3290 0 0 -3290 -3290 0zm-53 -53l3395 0 0 3396 -3395 0 0 -3396z"/>
     <path id="48" class="fil43" d="M8898 9241l0 3360 3360 0 0 -3360 -3360 0zm-53 -53l3465 0 0 3466 -3465 0 0 -3466z"/>
     <path id="49" class="fil44" d="M8863 9206l0 3430 3430 0 0 -3430 -3430 0zm-53 -53l3535 0 0 3536 -3535 0 0 -3536z"/>
     <path id="50" class="fil45" d="M8828 9171l0 3500 3500 0 0 -3500 -3500 0zm-53 -53l3605 0 0 3606 -3605 0 0 -3606z"/>
     <path id="51" class="fil46" d="M8793 9136l0 3570 3570 0 0 -3570 -3570 0zm-53 -53l3676 0 0 3676 -3676 0 0 -3676z"/>
     <path id="52" class="fil47" d="M8758 9101l0 3640 3640 0 0 -3640 -3640 0zm-53 -53l3746 0 0 3746 -3746 0 0 -3746z"/>
     <path id="53" class="fil48" d="M8723 9066l0 3710 3710 0 0 -3710 -3710 0zm-53 -53l3816 0 0 3816 -3816 0 0 -3816z"/>
     <path id="54" class="fil49" d="M8688 9031l0 3780 3780 0 0 -3780 -3780 0zm-53 -53l3886 0 0 3886 -3886 0 0 -3886z"/>
     <path id="55" class="fil50" d="M8653 8996l0 3850 3850 0 0 -3850 -3850 0zm-53 -53l3956 0 0 3956 -3956 0 0 -3956z"/>
     <path id="56" class="fil51" d="M8618 8961l0 3920 3920 0 0 -3920 -3920 0zm-53 -53l4026 0 0 4026 -4026 0 0 -4026z"/>
     <path id="57" class="fil52" d="M8583 8926l0 3990 3990 0 0 -3990 -3990 0zm-53 -53l4096 0 0 4096 -4096 0 0 -4096z"/>
     <path id="58" class="fil53" d="M8548 8891l0 4060 4060 0 0 -4060 -4060 0zm-53 -53l4166 0 0 4166 -4166 0 0 -4166z"/>
     <path id="59" class="fil53" d="M8513 8856l0 4130 4130 0 0 -4130 -4130 0zm-53 -53l4236 0 0 4236 -4236 0 0 -4236z"/>
     <path id="60" class="fil54" d="M8478 8821l0 4200 4200 0 0 -4200 -4200 0zm-53 -53l4306 0 0 4306 -4306 0 0 -4306z"/>
     <path id="61" class="fil55" d="M8443 8786l0 4270 4270 0 0 -4270 -4270 0zm-53 -53l4376 0 0 4376 -4376 0 0 -4376z"/>
     <path id="62" class="fil55" d="M8408 8751l0 4340 4340 0 0 -4340 -4340 0zm-53 -53l4446 0 0 4446 -4446 0 0 -4446z"/>
     <path id="63" class="fil56" d="M8373 8716l0 4410 4410 0 0 -4410 -4410 0zm-53 -53l4516 0 0 4516 -4516 0 0 -4516z"/>
     <path id="64" class="fil57" d="M8338 8681l0 4480 4480 0 0 -4480 -4480 0zm-53 -53l4586 0 0 4586 -4586 0 0 -4586z"/>
     <path id="65" class="fil58" d="M8303 8646l0 4550 4550 0 0 -4550 -4550 0zm-53 -53l4656 0 0 4656 -4656 0 0 -4656z"/>
     <path id="66" class="fil59" d="M8268 8611l0 4620 4620 0 0 -4620 -4620 0zm-53 -53l4726 0 0 4726 -4726 0 0 -4726z"/>
     <path id="67" class="fil60" d="M8233 8576l0 4690 4690 0 0 -4690 -4690 0zm-53 -53l4796 0 0 4796 -4796 0 0 -4796z"/>
     <path id="68" class="fil61" d="M8198 8541l0 4760 4760 0 0 -4760 -4760 0zm-53 -53l4866 0 0 4866 -4866 0 0 -4866z"/>
     <path id="69" class="fil62" d="M8163 8506l0 4830 4830 0 0 -4830 -4830 0zm-53 -53l4936 0 0 4936 -4936 0 0 -4936z"/>
     <path id="70" class="fil63" d="M8128 8471l0 4900 4900 0 0 -4900 -4900 0zm-53 -53l5006 0 0 5006 -5006 0 0 -5006z"/>
     <path id="71" class="fil64" d="M8093 8436l0 4970 4970 0 0 -4970 -4970 0zm-53 -53l5076 0 0 5076 -5076 0 0 -5076z"/>
     <path id="72" class="fil65" d="M8058 8401l0 5040 5040 0 0 -5040 -5040 0zm-53 -53l5146 0 0 5146 -5146 0 0 -5146z"/>
     <path id="73" class="fil66" d="M8023 8366l0 5110 5110 0 0 -5110 -5110 0zm-53 -53l5216 0 0 5216 -5216 0 0 -5216z"/>
     <path id="74" class="fil67" d="M7988 8331l0 5180 5180 0 0 -5180 -5180 0zm-53 -53l5286 0 0 5286 -5286 0 0 -5286z"/>
     <path id="75" class="fil67" d="M7953 8296l0 5250 5250 0 0 -5250 -5250 0zm-53 -53l5356 0 0 5356 -5356 0 0 -5356z"/>
     <path id="76" class="fil68" d="M7917 8261l0 5320 5321 0 0 -5320 -5321 0zm-52 -53l5426 0 0 5426 -5426 0 0 -5426z"/>
     <path id="77" class="fil69" d="M7882 8226l0 5390 5391 0 0 -5390 -5391 0zm-52 -53l5496 0 0 5496 -5496 0 0 -5496z"/>
     <path id="78" class="fil70" d="M7847 8191l0 5460 5461 0 0 -5460 -5461 0zm-52 -53l5566 0 0 5566 -5566 0 0 -5566z"/>
     <path id="79" class="fil71" d="M7812 8156l0 5530 5531 0 0 -5530 -5531 0zm-52 -53l5636 0 0 5636 -5636 0 0 -5636z"/>
     <path id="80" class="fil72" d="M7777 8121l0 5600 5601 0 0 -5600 -5601 0zm-52 -53l5706 0 0 5706 -5706 0 0 -5706z"/>
     <path id="81" class="fil73" d="M7742 8086l0 5670 5671 0 0 -5670 -5671 0zm-52 -53l5776 0 0 5776 -5776 0 0 -5776z"/>
     <path id="82" class="fil74" d="M7707 8051l0 5740 5741 0 0 -5740 -5741 0zm-52 -53l5846 0 0 5846 -5846 0 0 -5846z"/>
     <path id="83" class="fil75" d="M7672 8016l0 5810 5811 0 0 -5810 -5811 0zm-52 -53l5916 0 0 5916 -5916 0 0 -5916z"/>
     <path id="84" class="fil76" d="M7637 7981l0 5880 5881 0 0 -5880 -5881 0zm-52 -53l5986 0 0 5986 -5986 0 0 -5986z"/>
     <path id="85" class="fil77" d="M7602 7946l0 5950 5951 0 0 -5950 -5951 0zm-52 -53l6056 0 0 6056 -6056 0 0 -6056z"/>
     <path id="86" class="fil78" d="M7567 7911l0 6020 6021 0 0 -6020 -6021 0zm-52 -53l6126 0 0 6126 -6126 0 0 -6126z"/>
     <path id="87" class="fil78" d="M7532 7876l0 6090 6091 0 0 -6090 -6091 0zm-52 -53l6196 0 0 6196 -6196 0 0 -6196z"/>
     <path id="88" class="fil79" d="M7497 7841l0 6160 6161 0 0 -6160 -6161 0zm-52 -53l6266 0 0 6266 -6266 0 0 -6266z"/>
     <path id="89" class="fil80" d="M7462 7806l0 6230 6231 0 0 -6230 -6231 0zm-52 -53l6336 0 0 6336 -6336 0 0 -6336z"/>
     <path id="90" class="fil80" d="M7427 7771l0 6300 6301 0 0 -6300 -6301 0zm-52 -53l6406 0 0 6406 -6406 0 0 -6406z"/>
     <path id="91" class="fil81" d="M7392 7736l0 6370 6371 0 0 -6370 -6371 0zm-52 -53l6476 0 0 6476 -6476 0 0 -6476z"/>
     <path id="92" class="fil82" d="M7357 7701l0 6440 6441 0 0 -6440 -6441 0zm-52 -53l6546 0 0 6546 -6546 0 0 -6546z"/>
     <path id="93" class="fil83" d="M7322 7666l0 6510 6511 0 0 -6510 -6511 0zm-52 -53l6616 0 0 6616 -6616 0 0 -6616z"/>
     <path id="94" class="fil84" d="M7287 7631l0 6580 6581 0 0 -6580 -6581 0zm-52 -53l6686 0 0 6686 -6686 0 0 -6686z"/>
     <path id="95" class="fil85" d="M7252 7596l0 6650 6651 0 0 -6650 -6651 0zm-52 -53l6756 0 0 6756 -6756 0 0 -6756z"/>
     <path id="96" class="fil86" d="M7217 7560l0 6721 6721 0 0 -6721 -6721 0zm-52 -52l6826 0 0 6826 -6826 0 0 -6826z"/>
     <path id="97" class="fil86" d="M7182 7525l0 6791 6791 0 0 -6791 -6791 0zm-52 -52l6896 0 0 6896 -6896 0 0 -6896z"/>
     <path id="98" class="fil87" d="M7147 7490l0 6861 6861 0 0 -6861 -6861 0zm-52 -52l6966 0 0 6966 -6966 0 0 -6966z"/>
     <path id="99" class="fil88" d="M7112 7455l0 6931 6931 0 0 -6931 -6931 0zm-52 -52l7036 0 0 7036 -7036 0 0 -7036z"/>
     <path id="100" class="fil89" d="M7077 7420l0 7001 7001 0 0 -7001 -7001 0zm-52 -52l7106 0 0 7106 -7106 0 0 -7106z"/>
     <path id="101" class="fil90" d="M7042 7385l0 7071 7071 0 0 -7071 -7071 0zm-52 -52l7176 0 0 7176 -7176 0 0 -7176z"/>
     <path id="102" class="fil91" d="M7007 7350l0 7141 7141 0 0 -7141 -7141 0zm-52 -52l7246 0 0 7246 -7246 0 0 -7246z"/>
     <path id="103" class="fil92" d="M6972 7315l0 7211 7211 0 0 -7211 -7211 0zm-52 -52l7316 0 0 7316 -7316 0 0 -7316z"/>
     <path id="104" class="fil93" d="M6937 7280l0 7281 7281 0 0 -7281 -7281 0zm-52 -52l7386 0 0 7386 -7386 0 0 -7386z"/>
     <path id="105" class="fil94" d="M6902 7245l0 7351 7351 0 0 -7351 -7351 0zm-52 -52l7456 0 0 7456 -7456 0 0 -7456z"/>
     <path id="106" class="fil95" d="M6867 7210l0 7421 7421 0 0 -7421 -7421 0zm-52 -52l7526 0 0 7526 -7526 0 0 -7526z"/>
     <path id="107" class="fil96" d="M6832 7175l0 7491 7491 0 0 -7491 -7491 0zm-52 -52l7596 0 0 7596 -7596 0 0 -7596z"/>
     <path id="108" class="fil97" d="M6797 7140l0 7561 7561 0 0 -7561 -7561 0zm-52 -52l7666 0 0 7666 -7666 0 0 -7666z"/>
     <path id="109" class="fil98" d="M6762 7105l0 7631 7631 0 0 -7631 -7631 0zm-52 -52l7736 0 0 7736 -7736 0 0 -7736z"/>
     <path id="110" class="fil99" d="M6727 7070l0 7701 7701 0 0 -7701 -7701 0zm-52 -52l7806 0 0 7806 -7806 0 0 -7806z"/>
     <path id="111" class="fil100" d="M6692 7035l0 7771 7771 0 0 -7771 -7771 0zm-52 -52l7876 0 0 7876 -7876 0 0 -7876z"/>
     <path id="112" class="fil101" d="M6657 7000l0 7841 7841 0 0 -7841 -7841 0zm-52 -52l7946 0 0 7946 -7946 0 0 -7946z"/>
     <path id="113" class="fil102" d="M6622 6965l0 7911 7911 0 0 -7911 -7911 0zm-52 -52l8016 0 0 8016 -8016 0 0 -8016z"/>
     <path id="114" class="fil103" d="M6587 6930l0 7981 7981 0 0 -7981 -7981 0zm-52 -52l8086 0 0 8086 -8086 0 0 -8086z"/>
     <path id="115" class="fil104" d="M6552 6895l0 8051 8051 0 0 -8051 -8051 0zm-52 -52l8156 0 0 8156 -8156 0 0 -8156z"/>
     <path id="116" class="fil104" d="M6517 6860l0 8121 8121 0 0 -8121 -8121 0zm-52 -52l8226 0 0 8226 -8226 0 0 -8226z"/>
     <path id="117" class="fil105" d="M6482 6825l0 8191 8191 0 0 -8191 -8191 0zm-52 -52l8296 0 0 8296 -8296 0 0 -8296z"/>
     <path id="118" class="fil106" d="M6447 6790l0 8261 8261 0 0 -8261 -8261 0zm-52 -52l8366 0 0 8366 -8366 0 0 -8366z"/>
     <path id="119" class="fil107" d="M6412 6755l0 8331 8331 0 0 -8331 -8331 0zm-52 -52l8436 0 0 8436 -8436 0 0 -8436z"/>
     <path id="120" class="fil108" d="M6377 6720l0 8401 8401 0 0 -8401 -8401 0zm-52 -52l8506 0 0 8506 -8506 0 0 -8506z"/>
     <path id="121" class="fil109" d="M6342 6685l0 8471 8471 0 0 -8471 -8471 0zm-52 -52l8576 0 0 8576 -8576 0 0 -8576z"/>
     <path id="122" class="fil110" d="M6307 6650l0 8541 8541 0 0 -8541 -8541 0zm-52 -52l8646 0 0 8646 -8646 0 0 -8646z"/>
     <path id="123" class="fil111" d="M6272 6615l0 8611 8611 0 0 -8611 -8611 0zm-52 -52l8716 0 0 8716 -8716 0 0 -8716z"/>
     <path id="124" class="fil112" d="M6237 6580l0 8681 8681 0 0 -8681 -8681 0zm-52 -52l8786 0 0 8786 -8786 0 0 -8786z"/>
     <path id="125" class="fil112" d="M6202 6545l0 8751 8751 0 0 -8751 -8751 0zm-52 -52l8856 0 0 8856 -8856 0 0 -8856z"/>
     <path id="126" class="fil113" d="M6167 6510l0 8821 8821 0 0 -8821 -8821 0zm-52 -52l8926 0 0 8926 -8926 0 0 -8926z"/>
     <path id="127" class="fil114" d="M6132 6475l0 8891 8891 0 0 -8891 -8891 0zm-52 -52l8996 0 0 8996 -8996 0 0 -8996z"/>
     <path id="128" class="fil115" d="M6097 6440l0 8961 8961 0 0 -8961 -8961 0zm-52 -52l9066 0 0 9066 -9066 0 0 -9066z"/>
     <path id="129" class="fil116" d="M6062 6405l0 9031 9031 0 0 -9031 -9031 0zm-52 -52l9136 0 0 9136 -9136 0 0 -9136z"/>
     <path id="130" class="fil117" d="M6027 6370l0 9101 9101 0 0 -9101 -9101 0zm-52 -52l9206 0 0 9206 -9206 0 0 -9206z"/>
     <path id="131" class="fil118" d="M5992 6335l0 9171 9171 0 0 -9171 -9171 0zm-52 -52l9276 0 0 9276 -9276 0 0 -9276z"/>
     <path id="132" class="fil119" d="M5957 6300l0 9241 9241 0 0 -9241 -9241 0zm-52 -52l9346 0 0 9346 -9346 0 0 -9346z"/>
     <path id="133" class="fil120" d="M5922 6265l0 9311 9311 0 0 -9311 -9311 0zm-52 -52l9416 0 0 9416 -9416 0 0 -9416z"/>
     <path id="134" class="fil121" d="M5887 6230l0 9381 9381 0 0 -9381 -9381 0zm-52 -52l9486 0 0 9486 -9486 0 0 -9486z"/>
     <path id="135" class="fil122" d="M5852 6195l0 9451 9451 0 0 -9451 -9451 0zm-52 -52l9556 0 0 9556 -9556 0 0 -9556z"/>
     <path id="136" class="fil123" d="M5817 6160l0 9521 9521 0 0 -9521 -9521 0zm-52 -52l9626 0 0 9626 -9626 0 0 -9626z"/>
     <path id="137" class="fil124" d="M5782 6125l0 9591 9591 0 0 -9591 -9591 0zm-52 -52l9696 0 0 9696 -9696 0 0 -9696z"/>
     <path id="138" class="fil125" d="M5747 6090l0 9661 9661 0 0 -9661 -9661 0zm-52 -52l9766 0 0 9766 -9766 0 0 -9766z"/>
     <path id="139" class="fil126" d="M5712 6055l0 9731 9731 0 0 -9731 -9731 0zm-52 -52l9836 0 0 9836 -9836 0 0 -9836z"/>
     <path id="140" class="fil127" d="M5677 6020l0 9801 9801 0 0 -9801 -9801 0zm-52 -52l9906 0 0 9906 -9906 0 0 -9906z"/>
     <path id="141" class="fil127" d="M5642 5985l0 9871 9871 0 0 -9871 -9871 0zm-52 -52l9976 0 0 9976 -9976 0 0 -9976z"/>
     <path id="142" class="fil128" d="M5607 5950l0 9941 9941 0 0 -9941 -9941 0zm-52 -52l10046 0 0 10046 -10046 0 0 -10046z"/>
     <path id="143" class="fil129" d="M5572 5915l0 10011 10011 0 0 -10011 -10011 0zm-52 -52l10116 0 0 10116 -10116 0 0 -10116z"/>
     <path id="144" class="fil129" d="M5537 5880l0 10081 10081 0 0 -10081 -10081 0zm-52 -52l10186 0 0 10186 -10186 0 0 -10186z"/>
     <path id="145" class="fil130" d="M5502 5845l0 10151 10151 0 0 -10151 -10151 0zm-52 -52l10256 0 0 10256 -10256 0 0 -10256z"/>
     <path id="146" class="fil131" d="M5467 5810l0 10221 10221 0 0 -10221 -10221 0zm-52 -52l10326 0 0 10326 -10326 0 0 -10326z"/>
     <path id="147" class="fil132" d="M5432 5775l0 10291 10291 0 0 -10291 -10291 0zm-52 -52l10396 0 0 10396 -10396 0 0 -10396z"/>
     <path id="148" class="fil133" d="M5397 5740l0 10361 10361 0 0 -10361 -10361 0zm-52 -52l10466 0 0 10466 -10466 0 0 -10466z"/>
     <path id="149" class="fil134" d="M5362 5705l0 10431 10431 0 0 -10431 -10431 0zm-52 -52l10536 0 0 10536 -10536 0 0 -10536z"/>
     <path id="150" class="fil135" d="M5327 5670l0 10501 10501 0 0 -10501 -10501 0zm-52 -52l10606 0 0 10606 -10606 0 0 -10606z"/>
     <path id="151" class="fil136" d="M5292 5635l0 10571 10571 0 0 -10571 -10571 0zm-52 -52l10676 0 0 10676 -10676 0 0 -10676z"/>
     <path id="152" class="fil137" d="M5257 5600l0 10641 10641 0 0 -10641 -10641 0zm-52 -52l10746 0 0 10746 -10746 0 0 -10746z"/>
     <path id="153" class="fil138" d="M5222 5565l0 10711 10711 0 0 -10711 -10711 0zm-52 -52l10816 0 0 10816 -10816 0 0 -10816z"/>
     <path id="154" class="fil139" d="M5187 5530l0 10781 10781 0 0 -10781 -10781 0zm-52 -52l10886 0 0 10886 -10886 0 0 -10886z"/>
     <path id="155" class="fil140" d="M5152 5495l0 10851 10851 0 0 -10851 -10851 0zm-52 -52l10956 0 0 10956 -10956 0 0 -10956z"/>
     <path id="156" class="fil141" d="M5117 5460l0 10921 10921 0 0 -10921 -10921 0zm-52 -52l11026 0 0 11026 -11026 0 0 -11026z"/>
     <path id="157" class="fil142" d="M5082 5425l0 10991 10991 0 0 -10991 -10991 0zm-52 -52l11096 0 0 11096 -11096 0 0 -11096z"/>
     <path id="158" class="fil143" d="M5047 5390l0 11061 11061 0 0 -11061 -11061 0zm-52 -52l11166 0 0 11166 -11166 0 0 -11166z"/>
     <path id="159" class="fil144" d="M5012 5355l0 11131 11131 0 0 -11131 -11131 0zm-52 -52l11236 0 0 11236 -11236 0 0 -11236z"/>
     <path id="160" class="fil145" d="M4977 5320l0 11202 11201 0 0 -11202 -11201 0zm-52 -52l11306 0 0 11306 -11306 0 0 -11306z"/>
     <path id="161" class="fil146" d="M4942 5285l0 11272 11271 0 0 -11272 -11271 0zm-52 -52l11376 0 0 11376 -11376 0 0 -11376z"/>
     <path id="162" class="fil147" d="M4907 5250l0 11342 11341 0 0 -11342 -11341 0zm-52 -52l11446 0 0 11446 -11446 0 0 -11446z"/>
     <path id="163" class="fil148" d="M4872 5215l0 11412 11411 0 0 -11412 -11411 0zm-52 -52l11516 0 0 11516 -11516 0 0 -11516z"/>
     <path id="164" class="fil149" d="M4837 5180l0 11482 11481 0 0 -11482 -11481 0zm-52 -52l11586 0 0 11586 -11586 0 0 -11586z"/>
     <path id="165" class="fil150" d="M4802 5145l0 11552 11551 0 0 -11552 -11551 0zm-52 -52l11656 0 0 11656 -11656 0 0 -11656z"/>
     <path id="166" class="fil151" d="M4767 5110l0 11622 11621 0 0 -11622 -11621 0zm-52 -52l11726 0 0 11726 -11726 0 0 -11726z"/>
     <path id="167" class="fil152" d="M4732 5075l0 11692 11691 0 0 -11692 -11691 0zm-52 -52l11796 0 0 11796 -11796 0 0 -11796z"/>
     <path id="168" class="fil153" d="M4697 5040l0 11762 11761 0 0 -11762 -11761 0zm-52 -52l11866 0 0 11866 -11866 0 0 -11866z"/>
     <path id="169" class="fil154" d="M4662 5005l0 11832 11831 0 0 -11832 -11831 0zm-52 -52l11936 0 0 11936 -11936 0 0 -11936z"/>
     <path id="170" class="fil155" d="M4627 4970l0 11902 11901 0 0 -11902 -11901 0zm-52 -52l12006 0 0 12006 -12006 0 0 -12006z"/>
     <path id="171" class="fil156" d="M4592 4935l0 11972 11971 0 0 -11972 -11971 0zm-52 -52l12076 0 0 12076 -12076 0 0 -12076z"/>
     <path id="172" class="fil157" d="M4557 4900l0 12042 12041 0 0 -12042 -12041 0zm-52 -52l12146 0 0 12146 -12146 0 0 -12146z"/>
     <path id="173" class="fil158" d="M4522 4865l0 12112 12111 0 0 -12112 -12111 0zm-52 -52l12216 0 0 12216 -12216 0 0 -12216z"/>
     <path id="174" class="fil159" d="M4487 4830l0 12182 12181 0 0 -12182 -12181 0zm-52 -52l12286 0 0 12286 -12286 0 0 -12286z"/>
     <path id="175" class="fil160" d="M4452 4795l0 12252 12251 0 0 -12252 -12251 0zm-52 -52l12356 0 0 12356 -12356 0 0 -12356z"/>
     <path id="176" class="fil161" d="M4417 4760l0 12322 12321 0 0 -12322 -12321 0zm-52 -52l12426 0 0 12426 -12426 0 0 -12426z"/>
     <path id="177" class="fil162" d="M4382 4725l0 12392 12391 0 0 -12392 -12391 0zm-52 -52l12496 0 0 12496 -12496 0 0 -12496z"/>
     <path id="178" class="fil163" d="M4347 4690l0 12462 12461 0 0 -12462 -12461 0zm-52 -52l12566 0 0 12566 -12566 0 0 -12566z"/>
     <path id="179" class="fil164" d="M4312 4655l0 12532 12531 0 0 -12532 -12531 0zm-52 -52l12636 0 0 12636 -12636 0 0 -12636z"/>
     <path id="180" class="fil165" d="M4277 4620l0 12602 12601 0 0 -12602 -12601 0zm-52 -52l12706 0 0 12706 -12706 0 0 -12706z"/>
     <path id="181" class="fil166" d="M4242 4585l0 12672 12672 0 0 -12672 -12672 0zm-52 -52l12776 0 0 12776 -12776 0 0 -12776z"/>
     <path id="182" class="fil167" d="M4207 4550l0 12742 12742 0 0 -12742 -12742 0zm-52 -52l12846 0 0 12846 -12846 0 0 -12846z"/>
     <path id="183" class="fil168" d="M4172 4515l0 12812 12812 0 0 -12812 -12812 0zm-52 -52l12916 0 0 12916 -12916 0 0 -12916z"/>
     <path id="184" class="fil169" d="M4137 4480l0 12882 12882 0 0 -12882 -12882 0zm-52 -52l12986 0 0 12986 -12986 0 0 -12986z"/>
     <path id="185" class="fil170" d="M4102 4445l0 12952 12952 0 0 -12952 -12952 0zm-52 -52l13056 0 0 13056 -13056 0 0 -13056z"/>
     <path id="186" class="fil171" d="M4067 4410l0 13022 13022 0 0 -13022 -13022 0zm-52 -52l13126 0 0 13126 -13126 0 0 -13126z"/>
     <path id="187" class="fil172" d="M4032 4375l0 13092 13092 0 0 -13092 -13092 0zm-52 -52l13196 0 0 13196 -13196 0 0 -13196z"/>
     <path id="188" class="fil173" d="M3997 4340l0 13162 13162 0 0 -13162 -13162 0zm-52 -52l13266 0 0 13266 -13266 0 0 -13266z"/>
     <path id="189" class="fil174" d="M3962 4305l0 13232 13232 0 0 -13232 -13232 0zm-52 -52l13336 0 0 13336 -13336 0 0 -13336z"/>
     <path id="190" class="fil175" d="M3927 4270l0 13302 13302 0 0 -13302 -13302 0zm-52 -52l13406 0 0 13406 -13406 0 0 -13406z"/>
     <path id="191" class="fil176" d="M3892 4235l0 13372 13372 0 0 -13372 -13372 0zm-52 -52l13476 0 0 13476 -13476 0 0 -13476z"/>
     <path id="192" class="fil177" d="M3857 4200l0 13442 13442 0 0 -13442 -13442 0zm-52 -52l13546 0 0 13546 -13546 0 0 -13546z"/>
     <path id="193" class="fil178" d="M3822 4165l0 13512 13512 0 0 -13512 -13512 0zm-52 -52l13616 0 0 13616 -13616 0 0 -13616z"/>
     <path id="194" class="fil179" d="M3787 4130l0 13582 13582 0 0 -13582 -13582 0zm-52 -52l13686 0 0 13686 -13686 0 0 -13686z"/>
     <path id="195" class="fil180" d="M3752 4095l0 13652 13652 0 0 -13652 -13652 0zm-52 -52l13756 0 0 13756 -13756 0 0 -13756z"/>
     <path id="196" class="fil181" d="M3717 4060l0 13722 13722 0 0 -13722 -13722 0zm-52 -52l13826 0 0 13826 -13826 0 0 -13826z"/>
     <path id="197" class="fil182" d="M3682 4025l0 13792 13792 0 0 -13792 -13792 0zm-52 -52l13896 0 0 13896 -13896 0 0 -13896z"/>
     <path id="198" class="fil183" d="M3647 3990l0 13862 13862 0 0 -13862 -13862 0zm-52 -52l13966 0 0 13966 -13966 0 0 -13966z"/>
     <path id="199" class="fil184" d="M3612 3955l0 13932 13932 0 0 -13932 -13932 0zm-52 -52l14036 0 0 14036 -14036 0 0 -14036z"/>
     <path id="200" class="fil185" d="M3577 3920l0 14002 14002 0 0 -14002 -14002 0zm-52 -52l14106 0 0 14106 -14106 0 0 -14106z"/>
     <path id="201" class="fil186" d="M3542 3885l0 14072 14072 0 0 -14072 -14072 0zm-52 -52l14176 0 0 14176 -14176 0 0 -14176z"/>
     <path id="202" class="fil187" d="M3507 3850l0 14142 14142 0 0 -14142 -14142 0zm-52 -52l14246 0 0 14246 -14246 0 0 -14246z"/>
     <path id="203" class="fil188" d="M3472 3815l0 14212 14212 0 0 -14212 -14212 0zm-53 -52l14317 0 0 14316 -14317 0 0 -14316z"/>
     <path id="204" class="fil189" d="M3437 3780l0 14282 14282 0 0 -14282 -14282 0zm-53 -52l14387 0 0 14386 -14387 0 0 -14386z"/>
     <path id="205" class="fil190" d="M3402 3745l0 14352 14352 0 0 -14352 -14352 0zm-53 -52l14457 0 0 14456 -14457 0 0 -14456z"/>
     <path id="206" class="fil191" d="M3367 3710l0 14422 14422 0 0 -14422 -14422 0zm-53 -52l14527 0 0 14526 -14527 0 0 -14526z"/>
     <path id="207" class="fil192" d="M3332 3675l0 14492 14492 0 0 -14492 -14492 0zm-53 -52l14597 0 0 14596 -14597 0 0 -14596z"/>
     <path id="208" class="fil193" d="M3297 3640l0 14562 14562 0 0 -14562 -14562 0zm-53 -52l14667 0 0 14666 -14667 0 0 -14666z"/>
     <path id="209" class="fil194" d="M3262 3605l0 14632 14632 0 0 -14632 -14632 0zm-53 -52l14737 0 0 14736 -14737 0 0 -14736z"/>
     <path id="210" class="fil195" d="M3227 3570l0 14702 14702 0 0 -14702 -14702 0zm-53 -52l14807 0 0 14806 -14807 0 0 -14806z"/>
     <path id="211" class="fil196" d="M3192 3535l0 14772 14772 0 0 -14772 -14772 0zm-53 -52l14877 0 0 14876 -14877 0 0 -14876z"/>
     <path id="212" class="fil197" d="M3157 3500l0 14842 14842 0 0 -14842 -14842 0zm-53 -52l14947 0 0 14946 -14947 0 0 -14946z"/>
     <path id="213" class="fil198" d="M3122 3465l0 14912 14912 0 0 -14912 -14912 0zm-53 -52l15017 0 0 15016 -15017 0 0 -15016z"/>
     <path id="214" class="fil199" d="M3087 3430l0 14982 14982 0 0 -14982 -14982 0zm-53 -52l15087 0 0 15086 -15087 0 0 -15086z"/>
     <path id="215" class="fil200" d="M3052 3395l0 15052 15052 0 0 -15052 -15052 0zm-53 -52l15157 0 0 15156 -15157 0 0 -15156z"/>
     <path id="216" class="fil201" d="M3017 3360l0 15122 15122 0 0 -15122 -15122 0zm-53 -52l15227 0 0 15226 -15227 0 0 -15226z"/>
     <path id="217" class="fil202" d="M2982 3325l0 15192 15192 0 0 -15192 -15192 0zm-53 -52l15297 0 0 15296 -15297 0 0 -15296z"/>
     <path id="218" class="fil203" d="M2947 3290l0 15262 15262 0 0 -15262 -15262 0zm-53 -52l15367 0 0 15366 -15367 0 0 -15366z"/>
     <path id="219" class="fil204" d="M2912 3255l0 15332 15332 0 0 -15332 -15332 0zm-53 -52l15437 0 0 15436 -15437 0 0 -15436z"/>
     <path id="220" class="fil205" d="M2877 3220l0 15402 15402 0 0 -15402 -15402 0zm-53 -52l15507 0 0 15506 -15507 0 0 -15506z"/>
     <path id="221" class="fil206" d="M2842 3185l0 15472 15472 0 0 -15472 -15472 0zm-53 -52l15577 0 0 15576 -15577 0 0 -15576z"/>
     <path id="222" class="fil207" d="M2807 3150l0 15542 15542 0 0 -15542 -15542 0zm-53 -52l15647 0 0 15646 -15647 0 0 -15646z"/>
     <path id="223" class="fil208" d="M2772 3115l0 15612 15612 0 0 -15612 -15612 0zm-53 -53l15717 0 0 15717 -15717 0 0 -15717z"/>
     <path id="224" class="fil209" d="M2737 3080l0 15682 15682 0 0 -15682 -15682 0zm-53 -53l15787 0 0 15787 -15787 0 0 -15787z"/>
     <path id="225" class="fil210" d="M2702 3045l0 15752 15752 0 0 -15752 -15752 0zm-53 -53l15857 0 0 15857 -15857 0 0 -15857z"/>
     <path id="226" class="fil211" d="M2667 3010l0 15822 15822 0 0 -15822 -15822 0zm-53 -53l15927 0 0 15927 -15927 0 0 -15927z"/>
     <path id="227" class="fil212" d="M2632 2975l0 15892 15892 0 0 -15892 -15892 0zm-53 -53l15997 0 0 15997 -15997 0 0 -15997z"/>
     <path id="228" class="fil213" d="M2597 2940l0 15962 15962 0 0 -15962 -15962 0zm-53 -53l16067 0 0 16067 -16067 0 0 -16067z"/>
     <path id="229" class="fil214" d="M2562 2905l0 16032 16032 0 0 -16032 -16032 0zm-53 -53l16137 0 0 16137 -16137 0 0 -16137z"/>
     <path id="230" class="fil215" d="M2527 2870l0 16102 16102 0 0 -16102 -16102 0zm-53 -53l16207 0 0 16207 -16207 0 0 -16207z"/>
     <path id="231" class="fil216" d="M2492 2835l0 16172 16172 0 0 -16172 -16172 0zm-53 -53l16277 0 0 16277 -16277 0 0 -16277z"/>
     <path id="232" class="fil217" d="M2457 2800l0 16242 16242 0 0 -16242 -16242 0zm-53 -53l16347 0 0 16347 -16347 0 0 -16347z"/>
     <path id="233" class="fil218" d="M2422 2765l0 16312 16312 0 0 -16312 -16312 0zm-53 -53l16417 0 0 16417 -16417 0 0 -16417z"/>
     <path id="234" class="fil219" d="M2387 2730l0 16382 16382 0 0 -16382 -16382 0zm-53 -53l16487 0 0 16487 -16487 0 0 -16487z"/>
     <path id="235" class="fil220" d="M2352 2695l0 16452 16452 0 0 -16452 -16452 0zm-53 -53l16557 0 0 16557 -16557 0 0 -16557z"/>
     <path id="236" class="fil221" d="M2317 2660l0 16522 16522 0 0 -16522 -16522 0zm-53 -53l16627 0 0 16627 -16627 0 0 -16627z"/>
     <path id="237" class="fil222" d="M2282 2625l0 16592 16592 0 0 -16592 -16592 0zm-53 -53l16697 0 0 16697 -16697 0 0 -16697z"/>
     <path id="238" class="fil223" d="M2247 2590l0 16662 16662 0 0 -16662 -16662 0zm-53 -53l16767 0 0 16767 -16767 0 0 -16767z"/>
     <path id="239" class="fil224" d="M2212 2555l0 16732 16732 0 0 -16732 -16732 0zm-53 -53l16837 0 0 16837 -16837 0 0 -16837z"/>
     <path id="240" class="fil225" d="M2177 2520l0 16802 16802 0 0 -16802 -16802 0zm-53 -53l16907 0 0 16907 -16907 0 0 -16907z"/>
     <path id="241" class="fil226" d="M2142 2485l0 16872 16872 0 0 -16872 -16872 0zm-53 -53l16977 0 0 16977 -16977 0 0 -16977z"/>
     <path id="242" class="fil227" d="M2107 2450l0 16942 16942 0 0 -16942 -16942 0zm-53 -53l17047 0 0 17047 -17047 0 0 -17047z"/>
     <path id="243" class="fil228" d="M2072 2415l0 17012 17012 0 0 -17012 -17012 0zm-53 -53l17117 0 0 17117 -17117 0 0 -17117z"/>
     <path id="244" class="fil229" d="M2037 2380l0 17082 17082 0 0 -17082 -17082 0zm-53 -53l17187 0 0 17187 -17187 0 0 -17187z"/>
     <path id="245" class="fil230" d="M2002 2345l0 17152 17152 0 0 -17152 -17152 0zm-53 -53l17257 0 0 17257 -17257 0 0 -17257z"/>
     <path id="246" class="fil231" d="M1967 2310l0 17222 17222 0 0 -17222 -17222 0zm-53 -53l17327 0 0 17327 -17327 0 0 -17327z"/>
     <path id="247" class="fil232" d="M1932 2275l0 17292 17292 0 0 -17292 -17292 0zm-53 -53l17397 0 0 17397 -17397 0 0 -17397z"/>
     <path id="248" class="fil233" d="M1897 2240l0 17362 17362 0 0 -17362 -17362 0zm-53 -53l17467 0 0 17467 -17467 0 0 -17467z"/>
     <path id="249" class="fil234" d="M1862 2205l0 17432 17432 0 0 -17432 -17432 0zm-53 -53l17537 0 0 17537 -17537 0 0 -17537z"/>
     <path id="250" class="fil235" d="M1827 2170l0 17502 17502 0 0 -17502 -17502 0zm-53 -53l17607 0 0 17607 -17607 0 0 -17607z"/>
     <path id="251" class="fil236" d="M1792 2135l0 17572 17572 0 0 -17572 -17572 0zm-53 -53l17677 0 0 17677 -17677 0 0 -17677z"/>
     <path id="252" class="fil237" d="M1757 2100l0 17642 17642 0 0 -17642 -17642 0zm-53 -53l17747 0 0 17747 -17747 0 0 -17747z"/>
     <path id="253" class="fil238" d="M1722 2065l0 17712 17712 0 0 -17712 -17712 0zm-53 -53l17817 0 0 17817 -17817 0 0 -17817z"/>
     <path id="254" class="fil239" d="M1687 2030l0 17782 17782 0 0 -17782 -17782 0zm-53 -53l17887 0 0 17887 -17887 0 0 -17887z"/>
     <path id="255" class="fil240" d="M1652 1995l0 17852 17852 0 0 -17852 -17852 0zm-53 -53l17957 0 0 17957 -17957 0 0 -17957z"/>
     <path id="256" class="fil0" d="M1617 1960l0 17922 17922 0 0 -17922 -17922 0zm-35 -35l17992 0 0 17992 -17992 0 0 -17992z"/>
    </g>
    <path id="257" class="fil241 str0" d="M19539 10921c0,-4949 -4012,-8961 -8961,-8961 -4949,0 -8961,4012 -8961,8961 0,4949 4012,8961 8961,8961 4949,0 8961,-4012 8961,-8961z"/>
   </g>
   <circle class="fil0" cx="10646" cy="10921" r="7271"/>
   <circle class="fil240" cx="10511" cy="10921" r="3486"/>
   <circle class="fil2" cx="12732" cy="8980" r="1545"/>
  </g>
 </g>
</svg>
